<svg xmlns="http://www.w3.org/2000/svg"  viewBox="0 0 48 48" width="48px" height="48px" baseProfile="basic"><path fill="#c62828" d="M31.986,22.394L24.733,11.34c-0.346-0.527-1.119-0.527-1.466,0l-7.253,11.054	c-0.165,0.252-0.496,0.337-0.762,0.196L1.075,15.072c-0.6-0.318-1.271,0.283-1.021,0.915L7.46,34.66	c0.309,0.779,1.011,1.332,1.841,1.452c2.314,0.336,7.493,0.942,14.699,0.942c7.207,0,12.385-0.607,14.699-0.942	c0.829-0.12,1.532-0.673,1.841-1.452l7.406-18.674c0.25-0.631-0.421-1.233-1.021-0.915l-14.177,7.517	C32.482,22.731,32.151,22.646,31.986,22.394z"/><path fill="#e53935" d="M40.315,35.089c-0.362,0.549-0.947,0.926-1.616,1.022c-2.314,0.336-7.493,0.944-14.7,0.944	c-7.204,0-12.384-0.608-14.698-0.944c-0.83-0.12-1.531-0.672-1.84-1.452L0.055,15.986c-0.251-0.631,0.421-1.233,1.02-0.914	l14.178,7.517c0.266,0.143,0.596,0.058,0.762-0.196l7.254-11.052c0.345-0.529,1.119-0.529,1.464,0l7.254,11.052L40.315,35.089z"/><path fill="#ef5350" d="M39.829,35.621c-0.321,0.257-0.71,0.429-1.131,0.491c-2.314,0.336-7.49,0.944-14.698,0.944	c-7.207,0-12.387-0.608-14.7-0.944c-0.83-0.12-1.531-0.672-1.84-1.452L0.054,15.987c-0.251-0.631,0.421-1.233,1.02-0.914	l14.178,7.517L39.829,35.621z"/></svg>